<svg width="26" height="26" viewBox="0 0 26 26" fill="none" xmlns="http://www.w3.org/2000/svg">
<path d="M24.1949 14.0573L24.1955 14.0566L14.2482 3.06256C13.9211 2.70087 13.4776 2.5001 13 2.5001C12.5235 2.5001 12.0801 2.70091 11.752 3.06242L11.7519 3.06254L1.80453 14.0566L1.80444 14.0567C1.55909 14.3285 1.58023 14.7477 1.85094 14.9931L1.85096 14.9932C1.97842 15.1087 2.1379 15.1644 2.29555 15.1644C2.47567 15.1644 2.65637 15.0915 2.7878 14.9455C2.78782 14.9455 2.78784 14.9454 2.78787 14.9454L5.01221 12.487V21.2611C5.01221 22.2481 5.81523 23.0511 6.80221 23.0511H19.1955C20.1825 23.0511 20.9855 22.2481 20.9855 21.2611V12.487L23.21 14.9455C23.4555 15.2176 23.8749 15.2387 24.1468 14.992C24.4179 14.7461 24.4399 14.3294 24.1949 14.0573ZM12.7362 3.95159L12.7363 3.95144C12.8117 3.86773 12.9061 3.82564 13 3.82564C13.0939 3.82564 13.1883 3.86773 13.2637 3.95144L13.2639 3.95159L19.66 11.021V21.2611C19.66 21.5168 19.4524 21.7244 19.1967 21.7244H16.48V16.7544C16.48 15.7674 15.677 14.9644 14.69 14.9644H11.31C10.323 14.9644 9.52001 15.7674 9.52001 16.7544V21.7244H6.80334C6.54761 21.7244 6.34001 21.5168 6.34001 21.2611V11.021L12.7362 3.95159ZM10.8467 21.7244V16.7544C10.8467 16.4987 11.0543 16.2911 11.31 16.2911H14.69C14.9457 16.2911 15.1533 16.4987 15.1533 16.7544V21.7244H10.8467Z" fill="white" stroke="white" stroke-width="0.2"/>
<path d="M10.7468 21.8245H15.2534V16.7545C15.2534 16.4435 15.001 16.1911 14.6901 16.1911H11.3101C10.9991 16.1911 10.7468 16.4435 10.7468 16.7545V21.8245Z" fill="#FFD933"/>
</svg>
