<svg width="21" height="25" viewBox="0 0 21 25" fill="none" xmlns="http://www.w3.org/2000/svg">
<path d="M10.1444 1.18403L10.0764 1.11074L10.0747 1.11235C9.92994 1.25318 9.84492 1.44635 9.84096 1.64631C5.66832 2.03545 2.39013 5.45331 2.39013 9.60469V18.2186H1.69561C1.25918 18.2186 0.9 18.5623 0.9 18.9928C0.9 19.4233 1.25918 19.767 1.69561 19.767H5.43121C5.81059 22.176 7.9295 24.0333 10.4975 24.0982L10.4975 24.0984L10.5025 24.0982C13.0705 24.0333 15.1894 22.176 15.5688 19.767H19.3044C19.7408 19.767 20.1 19.4233 20.1 18.9928C20.1 18.5623 19.7408 18.2186 19.3044 18.2186H18.6099V9.60469C18.6099 5.45331 15.3317 2.03545 11.159 1.64631C11.1551 1.44635 11.0701 1.25318 10.9253 1.11235L10.9253 1.11233L10.9236 1.11076L10.8556 1.18403L10.9236 1.11073L10.9235 1.1107L10.9235 1.11062L10.9232 1.11041L10.9226 1.1098L10.9204 1.10781L10.9127 1.10101C10.9063 1.09531 10.897 1.08738 10.8855 1.07795C10.8627 1.05919 10.8302 1.03405 10.7922 1.00873C10.7212 0.961571 10.6107 0.9 10.5 0.9C10.3893 0.9 10.2788 0.961571 10.2078 1.00873C10.1697 1.03405 10.1373 1.05919 10.1145 1.07795C10.103 1.08738 10.0937 1.09531 10.0873 1.10101L10.0796 1.10781L10.0774 1.1098L10.0768 1.11041L10.0765 1.11062L10.0765 1.1107L10.0764 1.11073L10.1444 1.18403ZM10.6365 22.5516C8.88276 22.5516 7.41474 21.3564 7.04917 19.767H14.2236C13.8581 21.3564 12.3901 22.5516 10.6365 22.5516ZM6.16604 18.2186H3.98134V9.60469C3.98134 6.09669 6.8903 3.22929 10.5 3.15861C14.1097 3.22929 17.0187 6.09669 17.0187 9.60469V18.2186H14.834H6.16604Z" fill="white" stroke="white" stroke-width="0.2"/>
</svg>
