<svg width="12" height="19" viewBox="0 0 12 19" fill="none" xmlns="http://www.w3.org/2000/svg">
<path d="M10.9276 0.865361C10.8163 0.753803 10.6841 0.665294 10.5386 0.604904C10.393 0.544513 10.237 0.513428 10.0794 0.513428C9.92187 0.513428 9.76585 0.544513 9.62032 0.604904C9.47478 0.665294 9.34259 0.753803 9.23131 0.865361L1.26756 8.82911C1.17872 8.91777 1.10824 9.02308 1.06015 9.13901C1.01206 9.25494 0.987305 9.37922 0.987305 9.50473C0.987305 9.63025 1.01206 9.75453 1.06015 9.87046C1.10824 9.98639 1.17872 10.0917 1.26756 10.1804L9.23131 18.1441C9.7009 18.6137 10.458 18.6137 10.9276 18.1441C11.3971 17.6745 11.3971 16.9174 10.9276 16.4479L3.98923 9.49994L10.9371 2.55203C11.3971 2.09203 11.3971 1.32536 10.9276 0.865361Z" fill="white" stroke="white" stroke-width="0.5"/>
</svg>
