<svg width="26" height="26" viewBox="0 0 26 26" fill="none" xmlns="http://www.w3.org/2000/svg">
    <path fill-rule="evenodd" clip-rule="evenodd"
        d="M21.4196 8.67757L20.8128 7.6247C20.2995 6.73382 19.162 6.42649 18.2698 6.93767C17.8452 7.18782 17.3385 7.2588 16.8615 7.13494C16.3844 7.01107 15.9763 6.70255 15.7269 6.2774C15.5665 6.00717 15.4804 5.69937 15.4771 5.38514C15.4916 4.88135 15.3015 4.39316 14.9502 4.03178C14.5989 3.67039 14.1163 3.46658 13.6123 3.4668H12.3899C11.8962 3.46679 11.4227 3.66354 11.0744 4.01353C10.7261 4.36351 10.5316 4.83785 10.534 5.33161C10.5194 6.35105 9.68874 7.16976 8.6692 7.16965C8.35496 7.1664 8.04717 7.08021 7.77693 6.91982C6.88484 6.40864 5.7473 6.71598 5.23401 7.60687L4.58266 8.67757C4.06998 9.56733 4.37313 10.7042 5.26078 11.2205C5.83775 11.5536 6.19319 12.1693 6.19319 12.8355C6.19319 13.5017 5.83775 14.1174 5.26078 14.4505C4.37426 14.9633 4.07078 16.0974 4.58266 16.9845L5.19832 18.0463C5.43882 18.4802 5.84234 18.8005 6.31958 18.936C6.79683 19.0717 7.30846 19.0116 7.74125 18.769C8.1667 18.5207 8.6737 18.4527 9.14954 18.5801C9.62539 18.7074 10.0307 19.0195 10.2753 19.4471C10.4356 19.7173 10.5218 20.0251 10.5251 20.3394C10.5251 21.3692 11.36 22.2041 12.3899 22.2041H13.6123C14.6387 22.2042 15.4722 21.3747 15.4771 20.3483C15.4747 19.8529 15.6705 19.3772 16.0207 19.027C16.3709 18.6768 16.8466 18.4811 17.3419 18.4835C17.6554 18.4918 17.9619 18.5777 18.2342 18.7333C19.1239 19.2459 20.2607 18.9429 20.7771 18.0552L21.4196 16.9845C21.6682 16.5577 21.7365 16.0493 21.6092 15.572C21.4819 15.0947 21.1695 14.6879 20.7414 14.4416C20.3133 14.1953 20.001 13.7884 19.8737 13.311C19.7463 12.8338 19.8147 12.3254 20.0633 11.8987C20.225 11.6163 20.4591 11.3822 20.7414 11.2205C21.6237 10.7044 21.9262 9.57426 21.4196 8.68649V8.67757Z"
        stroke="#A2A8B5" stroke-opacity="0.8" stroke-width="1.7" stroke-linecap="round"
        stroke-linejoin="round" />
    <path
        d="M13.0081 15.405C14.4273 15.405 15.5778 14.2545 15.5778 12.8353C15.5778 11.4161 14.4273 10.2656 13.0081 10.2656C11.5889 10.2656 10.4384 11.4161 10.4384 12.8353C10.4384 14.2545 11.5889 15.405 13.0081 15.405Z"
        stroke="#A2A8B5" stroke-opacity="0.8" stroke-width="1.7" stroke-linecap="round"
        stroke-linejoin="round" />
</svg>
