<svg width="26" height="26" viewBox="0 0 26 26" fill="none" xmlns="http://www.w3.org/2000/svg">
<path fill-rule="evenodd" clip-rule="evenodd" d="M12.5667 3.4668C12.4303 3.4668 12.2585 3.62629 12.2585 3.62629C12.1464 3.73536 12.0821 3.88573 12.0821 4.0396C12.0821 4.06184 12.0838 4.08397 12.0864 4.10598C8.47258 4.40145 5.62479 7.34635 5.62479 10.9242V18.4762H4.9362C4.60326 18.4762 4.33334 18.7379 4.33334 19.0606C4.33334 19.3833 4.60326 19.6449 4.9362 19.6449H8.24847C8.53867 21.7254 10.3556 23.3428 12.5667 23.3986C14.7778 23.3428 16.5947 21.7254 16.8849 19.6449H20.1972C20.5301 19.6449 20.8 19.3833 20.8 19.0606C20.8 18.7379 20.5301 18.4762 20.1972 18.4762H19.5086V10.9242C19.5086 7.34635 16.6608 4.40145 13.047 4.10598C13.0496 4.08397 13.0513 4.06184 13.0513 4.0396C13.0513 3.88573 12.987 3.73536 12.8748 3.62629C12.8748 3.62629 12.7031 3.4668 12.5667 3.4668ZM9.46906 19.6449C9.75281 21.1152 11.0869 22.2315 12.685 22.2315C14.283 22.2315 15.617 21.1152 15.9007 19.6449H9.46906ZM6.83051 18.4762H8.81058H16.3228H18.3028V10.9242C18.3028 7.83361 15.7405 5.31218 12.5667 5.25091C9.3929 5.31218 6.83051 7.83361 6.83051 10.9242V18.4762Z" fill="#A2A8B5" fill-opacity="0.8"/>
<path d="M12.4484 23.4943C10.2729 23.3863 8.49117 21.7974 8.16234 19.7449H4.9362C4.551 19.7449 4.23334 19.4414 4.23334 19.0606C4.23334 18.6797 4.551 18.3762 4.9362 18.3762H5.52479V10.9242C5.52479 7.32294 8.36539 4.35793 11.9825 4.01476C11.9891 3.84214 12.0637 3.67626 12.1888 3.55461L12.1905 3.553L12.2585 3.62628L12.1905 3.55299L12.1905 3.55296L12.1906 3.55288L12.1908 3.55269L12.1914 3.55213L12.1934 3.55035L12.2002 3.54432C12.2059 3.5393 12.214 3.53232 12.2241 3.52405C12.2442 3.50758 12.2726 3.48551 12.3061 3.46326C12.3678 3.42223 12.4665 3.3668 12.5667 3.3668C12.6669 3.3668 12.7655 3.42223 12.8273 3.46326C12.8607 3.48551 12.8892 3.50758 12.9093 3.52405C12.9194 3.53232 12.9275 3.5393 12.9332 3.54432L12.94 3.55035L12.9419 3.55213L12.9425 3.55269L12.9427 3.55288L12.9428 3.55296L12.9428 3.55299L12.8748 3.62629L12.9429 3.55302L12.9446 3.55459L12.9445 3.55461C13.0696 3.67626 13.1443 3.84214 13.1508 4.01476C16.768 4.35793 19.6086 7.32294 19.6086 10.9242V18.3762H20.1972C20.5824 18.3762 20.9 18.6797 20.9 19.0606C20.9 19.4414 20.5824 19.7449 20.1972 19.7449H16.971C16.6422 21.7974 14.8605 23.3863 12.685 23.4943V23.5001C12.6454 23.5001 12.606 23.4996 12.5667 23.4987L12.4484 23.4943ZM12.4484 23.4943V23.5001C12.4871 23.5001 12.5257 23.4997 12.5641 23.4987C12.565 23.4987 12.5658 23.4987 12.5667 23.4987L12.4484 23.4943ZM12.2585 3.62629C12.1464 3.73536 12.0821 3.88573 12.0821 4.0396C12.0821 4.04542 12.0822 4.05124 12.0824 4.05704L12.2585 3.62629ZM6.93051 10.9242C6.93051 7.89166 9.44526 5.41219 12.5667 5.35093C15.6881 5.41219 18.2028 7.89166 18.2028 10.9242V18.3762H16.3228H8.81058H6.93051V10.9242ZM12.685 22.1315C11.1772 22.1315 9.91443 21.108 9.59275 19.7449H15.777C15.4554 21.108 14.1927 22.1315 12.685 22.1315Z" stroke="#A2A8B5" stroke-opacity="0.8" stroke-width="0.2"/>
</svg>
