<svg width="28" height="25" viewBox="0 0 28 25" fill="none" xmlns="http://www.w3.org/2000/svg">
<path d="M26.8323 14.2964L15.3546 1.611C14.9984 1.2171 14.5174 1 14 1C13.4839 1 13.0029 1.2171 12.6454 1.611L1.1677 14.2964C0.927202 14.5629 0.948002 14.9737 1.2132 15.2142C1.338 15.3273 1.494 15.3819 1.6487 15.3819C1.8255 15.3819 2.0023 15.3104 2.131 15.1674L4.8987 12.1085V22.5319C4.8987 23.607 5.7736 24.4819 6.8487 24.4819H21.1487C22.2238 24.4819 23.0987 23.607 23.0987 22.5319V12.1085L25.8664 15.1674C26.1069 15.4339 26.5177 15.4547 26.7842 15.2129C27.0507 14.9711 27.0715 14.5616 26.8297 14.2951L26.8323 14.2964ZM16.6 23.1819H11.4V17.3319C11.4 16.9731 11.6912 16.6819 12.05 16.6819H15.95C16.3088 16.6819 16.6 16.9731 16.6 17.3319V23.1819ZM21.8 22.5319C21.8 22.8907 21.5088 23.1819 21.15 23.1819H17.9V17.3319C17.9 16.2568 17.0251 15.3819 15.95 15.3819H12.05C10.9749 15.3819 10.1 16.2568 10.1 17.3319V23.1819H6.85C6.4912 23.1819 6.2 22.8907 6.2 22.5319V10.672L13.61 2.482C13.7166 2.3637 13.8557 2.2987 14 2.2987C14.1443 2.2987 14.2834 2.3637 14.39 2.482L21.8 10.672V22.5319Z" fill="#A2A8B5" fill-opacity="0.8"/>
<path d="M2.20533 15.2343L4.7987 12.3681V22.5319C4.7987 23.6622 5.71837 24.5819 6.8487 24.5819H21.1487C22.279 24.5819 23.1987 23.6622 23.1987 22.5319V12.3681L25.7922 15.2344C26.0697 15.542 26.5439 15.5659 26.8514 15.287C27.1579 15.0089 27.1827 14.5378 26.9058 14.2302L26.9065 14.2293L15.4288 1.54393C15.0542 1.12971 14.5465 0.9 14 0.9C13.4547 0.9 12.9471 1.12976 12.5714 1.54379L12.5712 1.54391L1.09355 14.2293L1.09346 14.2294C0.816045 14.5368 0.839962 15.0107 1.14602 15.2883L1.14605 15.2883C1.29015 15.4189 1.47043 15.4819 1.6487 15.4819C1.85239 15.4819 2.05665 15.3994 2.20524 15.2344C2.20527 15.2344 2.2053 15.2343 2.20533 15.2343ZM13.6842 2.54909L13.6843 2.54894C13.7739 2.44946 13.8869 2.3987 14 2.3987C14.1131 2.3987 14.2261 2.44946 14.3157 2.54894L14.3158 2.54909L21.7 10.7105V22.5319C21.7 22.8355 21.4536 23.0819 21.15 23.0819H18V17.3319C18 16.2016 17.0803 15.2819 15.95 15.2819H12.05C10.9197 15.2819 10 16.2016 10 17.3319V23.0819H6.85C6.54643 23.0819 6.3 22.8355 6.3 22.5319V10.7105L13.6842 2.54909ZM16.5 23.0819H11.5V17.3319C11.5 17.0283 11.7464 16.7819 12.05 16.7819H15.95C16.2536 16.7819 16.5 17.0283 16.5 17.3319V23.0819Z" stroke="#A2A8B5" stroke-opacity="0.8" stroke-width="0.2"/>
</svg>
