<svg width="24" height="24" viewBox="0 0 24 24" fill="none" xmlns="http://www.w3.org/2000/svg">
<g clip-path="url(#clip0_641_11838)">
<path d="M4.45997 7.31483C4.45495 8.75728 5.01239 10.1167 6.02904 11.1405C7.04474 12.1633 8.40014 12.7309 9.84565 12.736H9.846H9.877C12.8652 12.736 15.295 10.3052 15.295 7.318C15.295 4.33078 12.8652 1.9 9.877 1.9C6.88984 1.9 4.46006 4.33066 4.45997 7.31483ZM4.45997 7.31483C4.45997 7.31488 4.45997 7.31494 4.45997 7.315H4.55997L4.45997 7.31465C4.45997 7.31471 4.45997 7.31477 4.45997 7.31483ZM6.15997 7.318V7.31839C6.1561 8.31082 6.53763 9.24031 7.23391 9.94249L6.15997 7.318ZM6.15997 7.318C6.15997 5.26821 7.82824 3.6 9.877 3.6C11.9268 3.6 13.595 5.26823 13.595 7.318C13.595 9.36777 11.9268 11.036 9.877 11.036L9.84939 11.036C9.84931 11.036 9.84923 11.036 9.84915 11.036M6.15997 7.318L9.84915 11.036M9.84915 11.036C8.85977 11.032 7.93126 10.6437 7.23401 9.94259L9.84915 11.036ZM9.99638 14.356H9.99613L9.87702 14.356H9.877C8.18533 14.356 6.20209 14.4503 4.63922 14.9604C3.85711 15.2157 3.17262 15.5774 2.68286 16.0905C2.19074 16.606 1.9 17.2694 1.9 18.115C1.9 19.0097 2.2405 19.6974 2.7864 20.2215C3.3295 20.7429 4.07255 21.0995 4.87709 21.3446C6.4856 21.8346 8.3721 21.8883 9.49339 21.8943H9.49388L10.0854 21.8945L10.0859 21.8945C11.7645 21.8864 13.6958 21.7754 15.2102 21.2589C15.9681 21.0004 16.6289 20.6379 17.1009 20.1293C17.5751 19.6184 17.854 18.9649 17.854 18.137C17.854 17.2421 17.5135 16.5542 16.9676 16.0299C16.4245 15.5084 15.6815 15.1517 14.8769 14.9065C13.2684 14.4164 11.3819 14.3627 10.2606 14.3568L10.2603 14.3568L9.99638 14.356ZM3.6 18.115C3.6 17.465 4.08182 16.9495 5.13395 16.5932C6.18356 16.2378 7.76462 16.056 9.877 16.056C11.9894 16.056 13.5703 16.2393 14.6198 16.5981C15.6713 16.9576 16.154 17.4784 16.154 18.137C16.154 18.7865 15.6722 19.3018 14.6201 19.6579C13.5704 20.0132 11.9894 20.195 9.877 20.195C7.76466 20.195 6.18372 20.0115 5.13423 19.6526C4.08264 19.2931 3.6 18.7726 3.6 18.115Z" fill="#A2A8B5" stroke="#A2A8B5" stroke-width="0.2"/>
<path d="M19.6799 6.54002L19.6799 6.54001C19.3783 6.18056 18.8418 6.13363 18.4824 6.43524C18.1229 6.73686 18.076 7.2733 18.3776 7.63275C18.3776 7.63275 18.3776 7.63275 18.3776 7.63275L19.1195 8.5171L18.2054 9.28516C18.2053 9.28518 18.2053 9.28519 18.2053 9.2852C17.8459 9.58682 17.799 10.1232 18.1006 10.4827C18.4022 10.8421 18.9386 10.8891 19.2981 10.5874L19.2981 10.5874L20.2123 9.81938L20.9558 10.7054C20.9558 10.7054 20.9558 10.7054 20.9558 10.7054C21.2574 11.0648 21.7939 11.1117 22.1533 10.8101C22.5128 10.5085 22.5597 9.97207 22.2581 9.61262L22.2581 9.61261L21.5146 8.72664L22.4312 7.95848L22.4312 7.95844C22.7907 7.65682 22.8376 7.12038 22.536 6.76093C22.2344 6.4015 21.698 6.35455 21.3385 6.65612C21.3385 6.65613 21.3385 6.65615 21.3385 6.65616L20.4218 7.42436L19.6799 6.54002Z" fill="#A2A8B5" stroke="#A2A8B5" stroke-width="0.2"/>
</g>
<defs>
<clipPath id="clip0_641_11838">
<rect width="24" height="24" fill="white"/>
</clipPath>
</defs>
</svg>
