<svg width="21" height="22" viewBox="0 0 21 22" fill="none" xmlns="http://www.w3.org/2000/svg">
    <path
        d="M8.5192 19.5006C8.51918 19.354 8.48691 19.2092 8.42468 19.0764C8.36245 18.9437 8.27179 18.8262 8.15911 18.7324C8.04643 18.6386 7.9145 18.5707 7.77267 18.5336C7.63083 18.4964 7.48256 18.4909 7.33837 18.5175C6.02964 18.7577 4.37725 18.7938 3.93791 17.5597C3.55482 16.604 2.92026 15.7697 2.1015 15.1454C2.04308 15.1136 1.9874 15.077 1.93504 15.036C1.86338 14.847 1.73611 14.6842 1.57 14.5689C1.4039 14.4537 1.20677 14.3916 1.00462 14.3907H0.999745C0.735415 14.3906 0.481812 14.4952 0.294446 14.6817C0.10708 14.8681 0.00121183 15.1212 1.40172e-05 15.3856C-0.00389493 16.2008 0.810795 16.7231 1.14131 16.8998C1.53105 17.2914 1.84427 17.7523 2.06489 18.2588C2.42905 19.282 3.48735 20.8343 6.5295 20.6342C6.5305 20.6693 6.53145 20.7025 6.53194 20.7328L6.53633 21.0003C6.53633 21.2654 6.64166 21.5197 6.82915 21.7072C7.01663 21.8947 7.27092 22 7.53606 22C7.80121 22 8.05549 21.8947 8.24298 21.7072C8.43047 21.5197 8.53579 21.2654 8.53579 21.0003L8.53092 20.682C8.52604 20.4925 8.5192 20.2182 8.5192 19.5006ZM19.1833 4.37869C19.2151 4.25372 19.2463 4.11509 19.2736 3.95888C19.4353 2.84477 19.2944 1.70768 18.8655 0.666768C18.8114 0.531068 18.7283 0.408845 18.622 0.308668C18.5156 0.208491 18.3887 0.132784 18.25 0.0868545C17.8941 -0.0332331 16.58 -0.269499 14.067 1.33652C11.9781 0.844945 9.80364 0.844945 7.71475 1.33652C5.21199 -0.245976 3.90472 -0.0312337 3.55228 0.0820158C3.41018 0.126084 3.27974 0.20139 3.17053 0.302414C3.06131 0.403438 2.97609 0.52762 2.9211 0.665858C2.48352 1.72675 2.34409 2.88704 2.51789 4.02139C2.5423 4.14929 2.56865 4.26743 2.59599 4.37579C1.76779 5.47893 1.32665 6.82449 1.34096 8.20386C1.33826 8.51161 1.35244 8.81928 1.38343 9.12548C1.71734 13.7268 4.71653 15.1082 6.80628 15.5827C6.76284 15.7077 6.7233 15.8414 6.68815 15.983C6.62551 16.2402 6.66743 16.5118 6.80472 16.7382C6.94201 16.9645 7.16347 17.1272 7.42053 17.1906C7.67758 17.2539 7.94927 17.2127 8.176 17.076C8.40273 16.9393 8.566 16.7183 8.63001 16.4614C8.69362 16.1283 8.85667 15.8223 9.09766 15.5837C9.24338 15.4561 9.34888 15.289 9.40133 15.1025C9.45379 14.9161 9.45093 14.7184 9.39311 14.5336C9.33529 14.3488 9.225 14.1847 9.07565 14.0614C8.92631 13.9381 8.74435 13.8609 8.55191 13.8391C5.09874 13.4446 3.59962 12.0378 3.3741 8.94195C3.34912 8.69674 3.33788 8.45033 3.34042 8.20387C3.32438 7.22079 3.64917 6.26247 4.25961 5.49171C4.32094 5.41135 4.38627 5.33413 4.45535 5.26032C4.57775 5.12336 4.66005 4.95532 4.6932 4.77466C4.72636 4.59399 4.70909 4.40768 4.6433 4.23619C4.57586 4.05576 4.52393 3.86992 4.48807 3.68067C4.40663 3.14253 4.43334 2.59355 4.56665 2.06586C5.43555 2.31127 6.25332 2.71073 6.981 3.24522C7.10134 3.32538 7.23751 3.37872 7.38027 3.40163C7.52303 3.42454 7.66904 3.41648 7.80842 3.37801C9.82898 2.82965 11.9592 2.83 13.9796 3.37901C14.1197 3.41744 14.2665 3.42503 14.4099 3.40127C14.5532 3.3775 14.6897 3.32295 14.8099 3.24135C15.5342 2.70464 16.3486 2.3016 17.2146 2.05125C17.3473 2.56626 17.377 3.10242 17.302 3.62894C17.2657 3.83642 17.2092 4.03983 17.133 4.23621C17.0673 4.4077 17.05 4.59401 17.0831 4.77468C17.1163 4.95534 17.1986 5.12338 17.321 5.26034C17.3981 5.34723 17.4753 5.44095 17.5446 5.52882C18.1507 6.28653 18.47 7.23383 18.4462 8.20386C18.448 8.4634 18.4355 8.72284 18.4086 8.98099C18.1885 12.0358 16.6835 13.4437 13.2142 13.839C13.0217 13.861 12.8398 13.9384 12.6904 14.0618C12.5411 14.1852 12.4309 14.3494 12.3731 14.5343C12.3153 14.7192 12.3125 14.9169 12.3651 15.1034C12.4176 15.2899 12.5232 15.4571 12.669 15.5847C12.9175 15.8296 13.0809 16.1479 13.1351 16.4926C13.2027 16.7603 13.2337 17.0358 13.2274 17.3118V19.6451C13.2176 20.2924 13.2176 20.7776 13.2176 21.0002C13.2176 21.2654 13.323 21.5196 13.5104 21.7071C13.6979 21.8946 13.9522 21.9999 14.2174 21.9999C14.4825 21.9999 14.7368 21.8946 14.9243 21.7071C15.1118 21.5196 15.2171 21.2654 15.2171 21.0002C15.2171 20.7835 15.2171 20.308 15.2269 19.6607V17.3118C15.2349 16.8697 15.1828 16.4286 15.0721 16.0006C15.0404 15.8601 15.0017 15.7213 14.9559 15.5847C16.4768 15.332 17.8586 14.5479 18.8555 13.3719C19.8524 12.1959 20.3996 10.7043 20.3998 9.16259C20.4327 8.8441 20.448 8.52404 20.4457 8.20386C20.4679 6.823 20.0231 5.4751 19.1833 4.37869Z"
        fill="#CED4DA" />
</svg>
