<svg width="21" height="24" viewBox="0 0 21 24" fill="none" xmlns="http://www.w3.org/2000/svg">
<path d="M14.5225 12.4548C14.5349 12.4357 14.5466 12.4162 14.5576 12.3958C14.5654 12.3814 14.5728 12.3667 14.5797 12.3519L14.4197 12.5824C14.4469 12.5547 14.4722 12.5251 14.4954 12.4936M14.5225 12.4548C14.514 12.4678 14.5049 12.4809 14.4954 12.4936M14.5225 12.4548L14.6062 12.5095C14.6062 12.5094 14.6063 12.5093 14.6063 12.5093M14.5225 12.4548L14.6063 12.5093M14.4954 12.4936L14.5759 12.553C14.5759 12.5531 14.5758 12.5531 14.5758 12.5532C14.5498 12.5883 14.5215 12.6215 14.4909 12.6525L14.4822 12.6614L14.4808 12.6623M14.4954 12.4936L14.4808 12.6623M14.4808 12.6623L11.3211 15.8611L11.321 15.8612C10.9636 16.222 10.3853 16.2208 10.0301 15.8586L10.03 15.8585C9.676 15.4964 9.67565 14.9125 10.0326 14.5522L11.6416 12.925L0.811834 12.9241C0.306967 12.9241 -0.1 12.5082 -0.1 11.9991C-0.1 11.49 0.306967 11.0741 0.81185 11.0741L11.6417 11.075L10.0326 9.446C9.67565 9.08573 9.676 8.50189 10.03 8.13972L10.0301 8.1396C10.3853 7.77739 10.9636 7.77628 11.321 8.13704L11.3211 8.13714L14.4817 11.3365C14.4819 11.3366 14.482 11.3368 14.4822 11.3369C14.516 11.3704 14.5473 11.4065 14.5756 11.4449C14.5826 11.4542 14.5893 11.4637 14.5959 11.4733L14.596 11.4735C14.6149 11.5013 14.6321 11.5296 14.6478 11.559C14.6478 11.559 14.6478 11.5591 14.6478 11.5591L14.5596 11.6062C14.5664 11.6189 14.5731 11.6321 14.5793 11.6456L14.4808 12.6623ZM14.7469 11.8581C14.7515 11.8878 14.7546 11.9186 14.7562 11.9495L14.7562 11.9496C14.7571 11.9662 14.7575 11.9826 14.7575 11.9991V12.0065L14.7575 12.0065C14.7572 12.0445 14.7546 12.0823 14.7498 12.1196L14.7495 12.1243L14.7492 12.1243L14.7469 12.1405L14.7468 12.1405L14.7177 11.7283C14.7283 11.7632 14.7368 11.799 14.7433 11.8354L14.7435 11.8366L14.7435 11.8366L14.7469 11.8581ZM14.7469 11.8581L14.747 11.8584L14.6481 11.8734L14.7469 11.8581ZM14.6063 12.5093C14.6202 12.488 14.6332 12.4661 14.6455 12.4436L14.6456 12.4434C14.6544 12.4272 14.6626 12.4107 14.6703 12.3942M14.6063 12.5093L14.6703 12.3942M14.6703 12.3942C14.683 12.367 14.6945 12.339 14.7044 12.3105C14.7044 12.3105 14.7044 12.3105 14.7044 12.3106L14.6703 12.3942ZM14.7179 12.2696L14.7176 12.2704L14.7179 12.2696ZM14.7179 12.2696C14.7283 12.2348 14.7369 12.1992 14.7433 12.1621L14.7179 12.2696ZM14.7039 11.686C14.6939 11.6577 14.6825 11.6302 14.6699 11.6033L14.7041 11.6866L14.7039 11.686ZM14.6564 11.9548C14.6571 11.9685 14.6575 11.9819 14.6575 11.9954L14.6564 11.9548ZM5.93457 16.1713C5.42969 16.1713 5.02272 16.5872 5.02272 17.0963V18.1314C5.02272 20.8702 7.21353 23.1 9.91151 23.1H15.1993C17.9037 23.1 20.1 20.8647 20.1 18.1215V5.8675C20.1 3.13091 17.9081 0.9 15.2101 0.9H9.92342C7.2201 0.9 5.02272 3.13416 5.02272 5.8774V6.9026C5.02272 7.41171 5.42969 7.8276 5.93457 7.8276C6.43944 7.8276 6.84641 7.41171 6.84641 6.9026V5.8774C6.84641 4.15241 8.22766 2.75 9.92342 2.75H15.2101C16.8983 2.75 18.2763 4.14801 18.2763 5.8675V18.1215C18.2763 19.8487 16.8951 21.25 15.1993 21.25H9.91151C8.22231 21.25 6.84641 19.8532 6.84641 18.1314V17.0963C6.84641 16.5872 6.43944 16.1713 5.93457 16.1713Z" fill="#A2A8B5" stroke="#A2A8B5" stroke-width="0.2"/>
</svg>
