<svg width="22" height="22" viewBox="0 0 22 22" fill="none" xmlns="http://www.w3.org/2000/svg">
<path fill-rule="evenodd" clip-rule="evenodd" d="M11 1C16.514 1 21 5.486 21 11C21 16.514 16.514 21 11 21C5.486 21 1 16.514 1 11C1 5.486 5.486 1 11 1ZM11 2.5C6.313 2.5 2.5 6.313 2.5 11C2.5 15.687 6.313 19.5 11 19.5C15.687 19.5 19.5 15.687 19.5 11C19.5 6.313 15.687 2.5 11 2.5ZM14.9482 10.0137C15.5012 10.0137 15.9482 10.4607 15.9482 11.0137C15.9482 11.5667 15.5012 12.0137 14.9482 12.0137C14.3952 12.0137 13.9432 11.5667 13.9432 11.0137C13.9432 10.4607 14.3862 10.0137 14.9382 10.0137H14.9482ZM10.9385 10.0137C11.4915 10.0137 11.9385 10.4607 11.9385 11.0137C11.9385 11.5667 11.4915 12.0137 10.9385 12.0137C10.3855 12.0137 9.9345 11.5667 9.9345 11.0137C9.9345 10.4607 10.3765 10.0137 10.9295 10.0137H10.9385ZM6.9297 10.0137C7.4827 10.0137 7.9297 10.4607 7.9297 11.0137C7.9297 11.5667 7.4827 12.0137 6.9297 12.0137C6.3767 12.0137 5.9247 11.5667 5.9247 11.0137C5.9247 10.4607 6.3677 10.0137 6.9207 10.0137H6.9297Z" fill="#A2A8B5" stroke="#A2A8B5" stroke-width="0.2"/>
</svg>
